name rise35.5848peak51.9257fall54.8793.mot
datacolumns 19
datarows 21
range 2.27332000000000 2.30665200000000
endheader
time	ground_force1_vx	ground_force1_vy	ground_force1_vz	ground_force1_px	ground_force1_py	ground_force1_pz	ground_force2_vx	ground_force2_vy	ground_force2_vz	ground_force2_px	ground_force2_py	ground_force2_pz	ground_torque1_x	ground_torque1_y	ground_torque1_z	ground_torque2_x	ground_torque2_y	ground_torque2_z	
2.27332000000000	-49.07931800000000	852.45679900000005	48.83850800000000	0.11022100000000	0.00000000000000	0.09447800000000	0.00000000000000	0.00000000000000	0.00000000000000	0.00000000000000	0.00000000000000	0.00000000000000	0.00000000000000	19.09681700000000	0.00000000000000	0.00000000000000	0.00000000000000	0.00000000000000	
2.27499100000000	-49.55091800000000	851.27425900000003	48.83105400000000	0.10936900000000	0.00000000000000	0.09447700000000	0.00000000000000	0.00000000000000	0.00000000000000	0.00000000000000	0.00000000000000	0.00000000000000	0.00000000000000	19.03506700000000	0.00000000000000	0.00000000000000	0.00000000000000	0.00000000000000	
2.27664900000000	-50.02879100000000	849.93519000000003	48.80263600000000	0.10852100000000	0.00000000000000	0.09447400000000	0.00000000000000	0.00000000000000	0.00000000000000	0.00000000000000	0.00000000000000	0.00000000000000	0.00000000000000	18.97218600000000	0.00000000000000	0.00000000000000	0.00000000000000	0.00000000000000	
2.27832300000000	-50.51331300000000	848.43744400000003	48.75253800000000	0.10767700000000	0.00000000000000	0.09446900000000	0.00000000000000	0.00000000000000	0.00000000000000	0.00000000000000	0.00000000000000	0.00000000000000	0.00000000000000	18.90828800000000	0.00000000000000	0.00000000000000	0.00000000000000	0.00000000000000	
2.27998800000000	-51.00481600000000	846.77895300000000	48.68007300000000	0.10683700000000	0.00000000000000	0.09446100000000	0.00000000000000	0.00000000000000	0.00000000000000	0.00000000000000	0.00000000000000	0.00000000000000	0.00000000000000	18.84348300000000	0.00000000000000	0.00000000000000	0.00000000000000	0.00000000000000	
2.28165400000000	-51.50357900000000	844.95772899999997	48.58458800000000	0.10600000000000	0.00000000000000	0.09445100000000	0.00000000000000	0.00000000000000	0.00000000000000	0.00000000000000	0.00000000000000	0.00000000000000	0.00000000000000	18.77787600000000	0.00000000000000	0.00000000000000	0.00000000000000	0.00000000000000	
2.28331900000000	-52.00982700000000	842.97186199999999	48.46546800000000	0.10516700000000	0.00000000000000	0.09443900000000	-1.22509900000000	3.68966100000000	0.96218400000000	0.00000000000000	0.00000000000000	0.00000000000000	0.00000000000000	18.71156300000000	0.00000000000000	0.00000000000000	0.29452000000000	0.00000000000000	
2.28499700000000	-52.52372800000000	840.81951800000002	48.32213400000000	0.10433700000000	0.00000000000000	0.09442400000000	-1.99204200000000	7.06808800000000	1.62608900000000	0.00000000000000	0.00000000000000	0.00000000000000	0.00000000000000	18.64463900000000	0.00000000000000	0.00000000000000	0.50005400000000	0.00000000000000	
2.28665900000000	-53.04538800000000	838.49894400000005	48.15405200000000	0.10351000000000	0.00000000000000	0.09440600000000	-2.86565900000000	11.14534300000000	2.39539800000000	0.00000000000000	0.00000000000000	0.00000000000000	0.00000000000000	18.57718700000000	0.00000000000000	0.00000000000000	0.73876100000000	0.00000000000000	
2.28831700000000	-53.57485300000000	836.00846100000001	47.96073000000000	0.10268600000000	0.00000000000000	0.09438500000000	-3.82111800000000	15.87714200000000	3.25228800000000	0.00000000000000	0.00000000000000	0.00000000000000	0.00000000000000	18.50928600000000	0.00000000000000	0.00000000000000	1.00530400000000	0.00000000000000	
2.28999100000000	-54.11209600000000	833.34646999999995	47.74172600000000	0.10186600000000	0.00000000000000	0.09436200000000	-4.82685200000000	21.18837500000000	4.17301500000000	0.00000000000000	0.00000000000000	0.00000000000000	0.00000000000000	18.44100800000000	0.00000000000000	0.00000000000000	1.29252300000000	0.00000000000000	
2.29165600000000	-54.65702600000000	830.51144699999998	47.49664500000000	0.10104800000000	0.00000000000000	0.09433500000000	-5.84659900000000	26.97881500000000	5.12949400000000	0.33776900000000	0.00000000000000	-0.06478300000000	0.00000000000000	18.37241600000000	0.00000000000000	0.00000000000000	2.94574600000000	0.00000000000000	
2.29332300000000	-55.20947800000000	827.50194799999997	47.22514400000000	0.10023300000000	0.00000000000000	0.09430600000000	-6.84202200000000	33.13156200000000	6.09138500000000	0.34163100000000	0.00000000000000	-0.06519500000000	0.00000000000000	18.30356300000000	0.00000000000000	0.00000000000000	3.52923300000000	0.00000000000000	
2.29498300000000	-55.76921200000000	824.31660499999998	46.92693600000000	0.09942100000000	0.00000000000000	0.09427300000000	-7.77557000000000	39.52312600000000	7.02842000000000	0.34515600000000	0.00000000000000	-0.06557300000000	0.00000000000000	18.23449700000000	0.00000000000000	0.00000000000000	4.10648600000000	0.00000000000000	
2.29665500000000	-56.33591300000000	820.95413299999996	46.60178700000000	0.09861200000000	0.00000000000000	0.09423700000000	-8.61318300000000	46.03371600000000	7.91265500000000	0.34838600000000	0.00000000000000	-0.06592300000000	0.00000000000000	18.16525300000000	0.00000000000000	0.00000000000000	4.66078400000000	0.00000000000000	
2.29832400000000	-56.90918700000000	817.41332399999999	46.24952300000000	0.09780600000000	0.00000000000000	0.09419800000000	-9.32650700000000	52.55634400000000	8.72034600000000	0.35135800000000	0.00000000000000	-0.06624900000000	0.00000000000000	18.09586000000000	0.00000000000000	0.00000000000000	5.17761500000000	0.00000000000000	
2.29998700000000	-57.48856200000000	813.69305399999996	45.87003000000000	0.09700200000000	0.00000000000000	0.09415600000000	-9.89440100000000	59.00381000000000	9.43327600000000	0.35409900000000	0.00000000000000	-0.06655400000000	0.00000000000000	18.02633700000000	0.00000000000000	0.00000000000000	5.64553700000000	0.00000000000000	
2.30165500000000	-58.07348200000000	809.79228300000000	45.46325200000000	0.09620100000000	0.00000000000000	0.09411000000000	-10.30364500000000	65.31306900000000	10.03943900000000	0.35663500000000	0.00000000000000	-0.06684200000000	0.00000000000000	17.95668900000000	0.00000000000000	0.00000000000000	6.05667100000000	0.00000000000000	
2.30331800000000	-58.66331300000000	805.71005600000001	45.02920100000000	0.09540200000000	0.00000000000000	0.09406100000000	-10.54890200000000	71.44692999999999	10.53311800000000	0.35898600000000	0.00000000000000	-0.06711400000000	0.00000000000000	17.88691700000000	0.00000000000000	0.00000000000000	6.40682200000000	0.00000000000000	
2.30498500000000	-59.25733600000000	801.44550700000002	44.56794700000000	0.09460600000000	0.00000000000000	0.09400900000000	-10.63204500000000	77.39335900000000	10.91443100000000	0.36117100000000	0.00000000000000	-0.06737200000000	0.00000000000000	17.81700600000000	0.00000000000000	0.00000000000000	6.69528200000000	0.00000000000000	
2.30665200000000	-59.85475100000000	796.99785999999995	44.07963000000000	0.09381300000000	0.00000000000000	0.09395300000000	-10.56100500000000	83.16281300000000	11.18847700000000	0.36320400000000	0.00000000000000	-0.06762000000000	0.00000000000000	17.74693400000000	0.00000000000000	0.00000000000000	6.92437600000000	0.00000000000000	
